<svg width="32" height="32" viewBox="0 0 32 32" fill="none" xmlns="http://www.w3.org/2000/svg">
<rect width="32" height="32" rx="16" fill="white"/>
<path d="M7.028 19.18L1.868 16.6V15.4L7.028 12.82V13.864L3.308 15.688C3.156 15.76 3.012 15.824 2.876 15.88C2.748 15.928 2.652 15.96 2.588 15.976C2.66 15.992 2.764 16.028 2.9 16.084C3.036 16.132 3.172 16.192 3.308 16.264L7.028 18.1V19.18Z" fill="black"/>
<path d="M10.012 16.972C9.716 16.972 9.48 16.884 9.304 16.708C9.12 16.532 9.028 16.304 9.028 16.024C9.028 15.728 9.12 15.488 9.304 15.304C9.48 15.12 9.716 15.028 10.012 15.028C10.308 15.028 10.548 15.12 10.732 15.304C10.908 15.488 10.996 15.728 10.996 16.024C10.996 16.304 10.908 16.532 10.732 16.708C10.548 16.884 10.308 16.972 10.012 16.972ZM16 16.972C15.704 16.972 15.468 16.884 15.292 16.708C15.108 16.532 15.016 16.304 15.016 16.024C15.016 15.728 15.108 15.488 15.292 15.304C15.468 15.12 15.704 15.028 16 15.028C16.296 15.028 16.536 15.12 16.72 15.304C16.896 15.488 16.984 15.728 16.984 16.024C16.984 16.304 16.896 16.532 16.72 16.708C16.536 16.884 16.296 16.972 16 16.972ZM21.988 16.972C21.692 16.972 21.452 16.884 21.268 16.708C21.092 16.532 21.004 16.304 21.004 16.024C21.004 15.728 21.092 15.488 21.268 15.304C21.452 15.12 21.692 15.028 21.988 15.028C22.284 15.028 22.52 15.12 22.696 15.304C22.88 15.488 22.972 15.728 22.972 16.024C22.972 16.304 22.88 16.532 22.696 16.708C22.52 16.884 22.284 16.972 21.988 16.972Z" fill="black"/>
<path d="M24.972 19.18V18.136L28.692 16.312C28.844 16.24 28.984 16.18 29.112 16.132C29.248 16.076 29.348 16.04 29.412 16.024C29.34 16.008 29.236 15.972 29.1 15.916C28.964 15.86 28.828 15.8 28.692 15.736L24.972 13.9V12.82L30.132 15.4V16.6L24.972 19.18Z" fill="black"/>
</svg>
